<svg width="34" height="34" viewBox="0 0 34 34" fill="none" xmlns="http://www.w3.org/2000/svg">
<rect width="34" height="34" rx="17" fill="black"/>
<g clip-path="url(#clip0_104_1707)">
<path d="M-24.5834 22C-24.6667 21.9167 -24.6667 21.9167 -24.6667 21.8333C-24.5834 21.8333 -24.5834 21.9167 -24.5834 22ZM21.9999 8.83334H20.9166V8.58334C20.9166 8.25001 20.6666 7.91667 20.2499 7.91667C19.9166 7.91667 19.5833 8.16667 19.5833 8.58334V8.83334H13.4166V8.58334C13.4166 8.25001 13.1666 7.91667 12.7499 7.91667C12.4166 7.91667 12.0833 8.16667 12.0833 8.58334V8.83334H10.9999C9.83325 8.83334 8.91659 9.75001 8.91659 10.9167V21.8333C8.91659 23 9.83325 23.9167 10.9999 23.9167H13.4166C13.7499 23.9167 14.0833 23.6667 14.0833 23.25C14.0833 22.9167 13.8333 22.5833 13.4166 22.5833H10.9999C10.4999 22.5833 10.1666 22.1667 10.1666 21.75V13.5833C10.1666 13.3333 10.4999 13 10.9999 13H21.9999C22.4999 13 22.8333 13.3333 22.8333 13.5833V15.0833C22.8333 15.4167 23.0833 15.75 23.4999 15.75C23.8333 15.75 24.1666 15.5 24.1666 15.0833V10.9167C24.0833 9.75001 23.1666 8.83334 21.9999 8.83334V8.83334ZM22.8333 11.9167C22.5833 11.8333 22.2499 11.75 21.9999 11.75H10.9999C10.6666 11.75 10.4166 11.8333 10.1666 11.9167V10.9167C10.1666 10.4167 10.5833 10.0833 10.9999 10.0833H12.0833V10.5C12.0833 10.8333 12.3333 11.1667 12.7499 11.1667C13.0833 11.1667 13.4166 10.9167 13.4166 10.5V10.0833H19.6666V10.5C19.6666 10.8333 19.9166 11.1667 20.3333 11.1667C20.6666 11.1667 20.9999 10.9167 20.9999 10.5V10.0833H21.9999C22.4999 10.0833 22.8333 10.5 22.8333 10.9167V11.9167Z" fill="#F01D1D"/>
<path d="M19.9167 15.6667C17.0833 15.6667 14.75 18 14.75 20.8333C14.75 23.6667 17.0833 26 19.9167 26C22.75 26 25.0833 23.6667 25.0833 20.8333C25.0833 18 22.75 15.6667 19.9167 15.6667V15.6667ZM19.9167 24.8333C17.75 24.8333 16 23.0833 16 20.9167C16 18.75 17.75 17 19.9167 17C22.0833 17 23.8333 18.75 23.8333 20.9167C23.8333 23 22.0833 24.8333 19.9167 24.8333Z" fill="#F01D1D"/>
<path d="M22.7499 22.5833C22.6666 22.75 22.4166 22.9167 22.2499 22.9167C22.1666 22.9167 21.9999 22.9167 21.9166 22.8333L19.3333 21.1667V18.6667C19.3333 18.3333 19.5833 18 19.9999 18C20.3333 18 20.6666 18.25 20.6666 18.6667V20.5L22.6666 21.75C22.8333 21.9167 22.9166 22.25 22.7499 22.5833V22.5833Z" fill="#F01D1D"/>
</g>
<defs>
<clipPath id="clip0_104_1707">
<rect width="20" height="20" fill="white" transform="translate(7 7)"/>
</clipPath>
</defs>
</svg>
