<svg width="34" height="34" viewBox="0 0 34 34" fill="none" xmlns="http://www.w3.org/2000/svg">
<rect width="34" height="34" rx="17" fill="black"/>
<path d="M23.8517 14.6333H22.7401C22.7526 14.5583 22.7634 14.4817 22.7634 14.4025V12.475C22.7634 11.6583 22.0992 10.9942 21.2817 10.9942H9.91675V9.79834C9.91675 9.45334 9.63675 9.17334 9.29175 9.17334C8.94675 9.17334 8.66675 9.45334 8.66675 9.79834V24.3583C8.66675 24.7042 8.94675 24.9833 9.29175 24.9833C9.63675 24.9833 9.91675 24.7042 9.91675 24.3583V23.1633H18.7134C19.5301 23.1633 20.1951 22.4992 20.1951 21.6825V19.755C20.1951 19.6758 20.1834 19.5992 20.1717 19.5233H23.8526C24.6692 19.5233 25.3342 18.8583 25.3342 18.0417V16.1167C25.3342 15.2975 24.6701 14.6333 23.8526 14.6333H23.8517ZM21.2834 12.2442C21.4101 12.2442 21.5142 12.3475 21.5142 12.475V14.4C21.5142 14.5283 21.4101 14.6333 21.2826 14.6333H9.91675V12.2417H21.2834V12.2442ZM18.9442 19.7558V21.6825C18.9442 21.81 18.8401 21.9133 18.7126 21.9133H9.91675V19.5233H18.7134C18.8409 19.5233 18.9442 19.6283 18.9442 19.7567V19.7558ZM24.0834 18.0417C24.0834 18.1692 23.9792 18.2725 23.8517 18.2725H9.91675V15.8833H23.8517C23.9792 15.8833 24.0834 15.9867 24.0834 16.1142V18.0417Z" fill="#F01D1D"/>
</svg>
