<svg width="34" height="34" viewBox="0 0 34 34" fill="none" xmlns="http://www.w3.org/2000/svg">
<rect width="34" height="34" rx="17" fill="black"/>
<path d="M22.8335 15.75V14.3333H19.1668V19.6667H20.5835V18H22.2502V16.5833H20.5835V15.75H22.8335V15.75ZM16.7502 14.3333H18.1668V19.6667H16.7502V14.3333ZM13.7502 15.6667C14.0835 15.6667 14.5002 15.8333 14.7502 16.0833L15.7502 15.25C15.2502 14.6667 14.5002 14.3333 13.7502 14.3333C12.2502 14.3333 11.0835 15.5 11.0835 17C11.0835 18.5 12.2502 19.6667 13.7502 19.6667C14.5835 19.6667 15.2502 19.3333 15.7502 18.75V16.6667H13.4168V17.6667H14.4168V18.1667C14.2502 18.25 14.0002 18.3333 13.7502 18.3333C13.0002 18.3333 12.4168 17.75 12.4168 17C12.4168 16.3333 13.0002 15.6667 13.7502 15.6667V15.6667Z" fill="#F01D1D"/>
<path d="M24.0834 8.68333H9.91675C8.88341 8.68333 8.04175 9.5225 8.04175 10.5558V23.4783C8.04175 24.51 8.88341 25.35 9.91675 25.35H24.0834C25.1167 25.35 25.9584 24.51 25.9584 23.4783V10.5558C25.9584 9.5225 25.1167 8.68333 24.0834 8.68333V8.68333ZM24.7084 23.4783C24.7084 23.82 24.4284 24.1 24.0834 24.1H9.91675C9.57175 24.1 9.29175 23.82 9.29175 23.4783V10.5558C9.29175 10.2125 9.57175 9.93333 9.91675 9.93333H24.0834C24.4284 9.93333 24.7084 10.2125 24.7084 10.5558V23.4783Z" fill="#F01D1D"/>
</svg>
