<svg width="34" height="34" viewBox="0 0 34 34" fill="none" xmlns="http://www.w3.org/2000/svg">
<rect width="34" height="34" rx="17" fill="black"/>
<path d="M17.0001 25.9583C12.0601 25.9583 8.04175 21.94 8.04175 17C8.04175 12.06 12.0601 8.04167 17.0001 8.04167C21.9401 8.04167 25.9584 12.06 25.9584 17C25.9584 21.94 21.9401 25.9583 17.0001 25.9583ZM17.0001 9.29167C12.7501 9.29167 9.29175 12.75 9.29175 17C9.29175 21.25 12.7501 24.7083 17.0001 24.7083C21.2501 24.7083 24.7084 21.25 24.7084 17C24.7084 12.75 21.2501 9.29167 17.0001 9.29167Z" fill="#F01D1D"/>
<path d="M17 21.2625C15.4234 21.2625 13.9725 20.4708 13.12 19.1425C12.9334 18.8525 13.0175 18.4675 13.3084 18.28C13.5984 18.0917 13.985 18.1767 14.1717 18.4683C14.7942 19.4367 15.8517 20.0142 17.0009 20.0142C18.15 20.0142 19.2075 19.4367 19.8309 18.4692C20.0175 18.1775 20.4042 18.0942 20.6942 18.2817C20.9859 18.4683 21.0692 18.855 20.8825 19.145C20.0284 20.4733 18.5775 21.2658 17.0009 21.2658L17 21.2625Z" fill="#F01D1D"/>
<path d="M19.2817 16.1133C19.9619 16.1133 20.5134 15.5619 20.5134 14.8817C20.5134 14.2014 19.9619 13.65 19.2817 13.65C18.6015 13.65 18.05 14.2014 18.05 14.8817C18.05 15.5619 18.6015 16.1133 19.2817 16.1133Z" fill="#F01D1D"/>
<path d="M14.7185 16.1133C15.3987 16.1133 15.9502 15.5619 15.9502 14.8817C15.9502 14.2014 15.3987 13.65 14.7185 13.65C14.0383 13.65 13.4868 14.2014 13.4868 14.8817C13.4868 15.5619 14.0383 16.1133 14.7185 16.1133Z" fill="#F01D1D"/>
</svg>
