<svg width="34" height="34" viewBox="0 0 34 34" fill="none" xmlns="http://www.w3.org/2000/svg">
<rect width="34" height="34" rx="17" fill="black"/>
<path d="M23.4584 8.66667H10.5417C9.50841 8.66667 8.66675 9.50834 8.66675 10.5417V23.4583C8.66675 24.4917 9.50841 25.3333 10.5417 25.3333H23.4584C24.4917 25.3333 25.3334 24.4917 25.3334 23.4583V10.5417C25.3334 9.50834 24.4917 8.66667 23.4584 8.66667ZM10.5417 9.91667H23.4584C23.8026 9.91667 24.0834 10.1975 24.0834 10.5417V18.605L20.8684 15.39C20.7517 15.2733 20.5934 15.2067 20.4267 15.2067H20.4242C20.2576 15.2067 20.0967 15.2733 19.9809 15.3933L16.3834 19.0467L14.8726 17.5417C14.7559 17.425 14.5976 17.3583 14.4309 17.3583C14.2701 17.3333 14.1017 17.425 13.9851 17.5475L9.91675 21.7017V10.5417C9.91675 10.1975 10.1976 9.91667 10.5417 9.91667ZM9.92175 23.4833L14.4367 18.8717L19.6717 24.0833H10.5417C10.2067 24.0833 9.93591 23.815 9.92175 23.4833ZM23.4584 24.0833H21.4417L17.2692 19.9275L20.4292 16.7192L24.0834 20.3725V23.4583C24.0834 23.8025 23.8026 24.0833 23.4584 24.0833Z" fill="#F01D1D"/>
<path d="M14.39 15.2092C15.0997 15.2092 15.675 14.6339 15.675 13.9242C15.675 13.2145 15.0997 12.6392 14.39 12.6392C13.6803 12.6392 13.105 13.2145 13.105 13.9242C13.105 14.6339 13.6803 15.2092 14.39 15.2092Z" fill="#F01D1D"/>
</svg>
