<svg width="28" height="28" viewBox="0 0 28 28" fill="none" xmlns="http://www.w3.org/2000/svg">
<mask id="mask0_342_181" style="mask-type:alpha" maskUnits="userSpaceOnUse" x="0" y="0" width="28" height="28">
<rect width="28" height="28" fill="#C4C4C4"/>
</mask>
<g mask="url(#mask0_342_181)">
<path d="M24.2085 9.43374H19.6235L20.0575 4.44974C20.0995 3.96907 19.7425 3.54558 19.2618 3.50241C18.7753 3.46741 18.3565 3.81741 18.3145 4.29924L17.8677 9.43257H10.4943L10.926 4.4509C10.9692 3.96906 10.611 3.54558 10.1327 3.50241C9.64266 3.46741 9.22616 3.81741 9.18416 4.29924L8.73849 9.43257H4.12083C3.63783 9.43257 3.24583 9.82574 3.24583 10.3076C3.24583 10.7894 3.63783 11.1826 4.12083 11.1826H8.58683L7.94516 18.5641H3.2085C2.7255 18.5641 2.3335 18.9561 2.3335 19.4391C2.3335 19.9221 2.7255 20.3141 3.2085 20.3141H7.7935L7.35949 25.2981C7.31749 25.7787 7.67449 26.2022 8.15516 26.2454L8.23216 26.2489C8.68133 26.2489 9.06283 25.9047 9.1025 25.4486L9.54933 20.3152H16.9227L16.491 25.2969C16.449 25.7787 16.806 26.2022 17.2867 26.2454L17.3637 26.2489C17.8128 26.2489 18.1943 25.9047 18.234 25.4486L18.6797 20.3152H23.2962C23.778 20.3152 24.1712 19.9221 24.1712 19.4402C24.1712 18.9584 23.778 18.5652 23.2962 18.5652H18.8302L19.4718 11.1837H24.2085C24.6915 11.1837 25.0835 10.7917 25.0835 10.3087C25.0835 9.82574 24.6915 9.43374 24.2085 9.43374ZM17.0743 18.5641H9.701L10.3427 11.1837H17.716L17.0743 18.5641Z" fill="black"/>
</g>
</svg>
