<svg width="28" height="28" viewBox="0 0 28 28" fill="none" xmlns="http://www.w3.org/2000/svg">
<mask id="mask0_342_185" style="mask-type:alpha" maskUnits="userSpaceOnUse" x="0" y="0" width="28" height="28">
<rect width="28" height="28" fill="#C4C4C4"/>
</mask>
<g mask="url(#mask0_342_185)">
<path d="M26.0286 8.80248L14.2417 2.43831C13.9816 2.29831 13.6701 2.29831 13.4099 2.43831L1.62539 8.80248C1.20073 9.03232 1.04206 9.56315 1.2719 9.98898C1.4294 10.2806 1.73156 10.4475 2.0419 10.4475C2.1819 10.4475 2.32539 10.4125 2.45723 10.3425L3.40806 9.82914L5.30856 23.261C5.55823 24.6785 6.83456 25.6666 8.40956 25.6666H19.2386C20.8159 25.6666 22.0911 24.6773 22.3454 23.2318L24.2424 9.82681L25.1967 10.3425C25.6214 10.5676 26.1534 10.4125 26.3832 9.98781C26.6119 9.56431 26.4532 9.03348 26.0286 8.80248ZM20.6176 22.9576C20.4927 23.6646 19.7974 23.9166 19.2409 23.9166H8.41189C7.85189 23.9166 7.15773 23.6646 7.03756 22.9856L5.05189 8.94248L13.8252 4.20348L22.6009 8.94014L20.6176 22.9576Z" fill="black"/>
<path d="M9.4152 14.1854C9.4152 16.6168 11.3927 18.5954 13.8252 18.5954C16.2577 18.5954 18.2352 16.6168 18.2352 14.1854C18.2352 11.7541 16.2577 9.77544 13.8252 9.77544C11.3927 9.77544 9.4152 11.7541 9.4152 14.1854ZM16.4852 14.1854C16.4852 15.6531 15.2929 16.8454 13.8252 16.8454C12.3575 16.8454 11.1652 15.6531 11.1652 14.1854C11.1652 12.7178 12.3575 11.5254 13.8252 11.5254C15.2929 11.5254 16.4852 12.7178 16.4852 14.1854Z" fill="black"/>
</g>
</svg>
