<svg width="20" height="21" viewBox="0 0 20 21" fill="none" xmlns="http://www.w3.org/2000/svg">
<path d="M18.7501 10.9167C18.7501 9.6 18.0209 8.45833 16.9601 7.91667C17.0884 7.55417 17.1584 7.1625 17.1584 6.75C17.1584 4.90833 15.7334 3.41833 13.9768 3.41833C13.5851 3.41833 13.2101 3.48833 12.8634 3.62667C12.3484 2.5125 11.2584 1.75 10.0001 1.75C8.74177 1.75 7.65343 2.51417 7.13593 3.625C6.7901 3.4875 6.41427 3.41667 6.0226 3.41667C4.26427 3.41667 2.84093 4.90833 2.84093 6.75C2.84093 7.16167 2.9101 7.55333 3.03843 7.91667C1.97843 8.45833 1.24927 9.59833 1.24927 10.9167C1.24927 12.1625 1.90093 13.2483 2.8676 13.8217C2.85093 13.9633 2.84093 14.105 2.84093 14.25C2.84093 16.0917 4.26427 17.5833 6.0226 17.5833C6.41427 17.5833 6.78927 17.5117 7.1351 17.375C7.65177 18.4867 8.7401 19.25 9.99927 19.25C11.2593 19.25 12.3476 18.4867 12.8634 17.375C13.2093 17.5108 13.5843 17.5817 13.9768 17.5817C15.7351 17.5817 17.1584 16.09 17.1584 14.2483C17.1584 14.1033 17.1484 13.9617 17.1309 13.8208C18.0959 13.2483 18.7501 12.1625 18.7501 10.9175V10.9167ZM13.2368 8.13833L9.6251 13.555C9.50427 13.7358 9.30677 13.8333 9.10427 13.8333C8.9851 13.8333 8.86427 13.8 8.7576 13.7283L8.66177 13.65L6.64927 11.6375C6.4051 11.3933 6.4051 10.9975 6.64927 10.7542C6.89343 10.5108 7.28927 10.5092 7.5326 10.7542L9.0076 12.2267L12.1951 7.44333C12.3868 7.15583 12.7751 7.08 13.0618 7.27083C13.3501 7.4625 13.4284 7.85083 13.2368 8.1375V8.13833Z" fill="#D9D9D9"/>
</svg>
