<svg width="20" height="20" viewBox="0 0 20 20" fill="none" xmlns="http://www.w3.org/2000/svg">
<path d="M16.4583 6.09169H14.8916C14.7333 3.52503 12.6033 1.48669 9.99996 1.48669C7.39663 1.48669 5.26663 3.52669 5.10829 6.09169H3.54163C2.50829 6.09169 1.66663 6.93086 1.66663 7.96669V16.4917C1.66663 17.525 2.50829 18.3667 3.54163 18.3667H16.4583C17.4916 18.3667 18.3333 17.525 18.3333 16.4917V7.96669C18.3333 6.93169 17.4916 6.09169 16.4583 6.09169ZM10.625 13.0725V14.2359C10.625 14.5809 10.345 14.8609 9.99996 14.8609C9.65496 14.8609 9.37496 14.5809 9.37496 14.2359V13.0725C8.73829 12.8225 8.28579 12.2059 8.28579 11.4809C8.28579 10.5334 9.05246 9.76586 9.99996 9.76586C10.9466 9.76586 11.7141 10.5325 11.7141 11.4792C11.7141 12.2042 11.2616 12.8209 10.625 13.0709V13.0725ZM6.37329 6.09169C6.53163 4.21669 8.08746 2.73669 9.99996 2.73669C11.9125 2.73669 13.4691 4.21753 13.6266 6.08919H6.37329V6.09169Z" fill="#D9D9D9"/>
</svg>
