<svg width="20" height="20" viewBox="0 0 20 20" fill="none" xmlns="http://www.w3.org/2000/svg">
<path d="M4.16667 11.6666C5.08714 11.6666 5.83333 10.9205 5.83333 9.99998C5.83333 9.0795 5.08714 8.33331 4.16667 8.33331C3.24619 8.33331 2.5 9.0795 2.5 9.99998C2.5 10.9205 3.24619 11.6666 4.16667 11.6666Z" fill="#D9D9D9"/>
<path d="M10 11.6666C10.9205 11.6666 11.6667 10.9205 11.6667 9.99998C11.6667 9.0795 10.9205 8.33331 10 8.33331C9.07957 8.33331 8.33337 9.0795 8.33337 9.99998C8.33337 10.9205 9.07957 11.6666 10 11.6666Z" fill="#D9D9D9"/>
<path d="M15.8333 11.6666C16.7538 11.6666 17.5 10.9205 17.5 9.99998C17.5 9.0795 16.7538 8.33331 15.8333 8.33331C14.9128 8.33331 14.1666 9.0795 14.1666 9.99998C14.1666 10.9205 14.9128 11.6666 15.8333 11.6666Z" fill="#D9D9D9"/>
</svg>
