<svg width="28" height="28" viewBox="0 0 28 28" fill="none" xmlns="http://www.w3.org/2000/svg">
<mask id="mask0_342_114" style="mask-type:alpha" maskUnits="userSpaceOnUse" x="0" y="0" width="28" height="28">
<rect width="28" height="28" fill="#C4C4C4"/>
</mask>
<g mask="url(#mask0_342_114)">
<path d="M22.4585 3.5H5.54183C3.772 3.5 2.3335 4.93967 2.3335 6.71067V21.2882C2.3335 23.0592 3.772 24.5 5.54183 24.5H22.4585C24.2283 24.5 25.6668 23.0592 25.6668 21.2882V6.71067C25.6668 4.93967 24.2283 3.5 22.4585 3.5ZM5.54183 5.25H22.4585C23.2635 5.25 23.9168 5.90333 23.9168 6.70833V7.54132L14.5252 13.8028C14.2067 14.0128 13.7948 14.0152 13.4752 13.8005L4.0835 7.54132V6.70833C4.0835 5.90333 4.73683 5.25 5.54183 5.25ZM22.4585 22.7477H5.54183C4.73683 22.7477 4.0835 22.0943 4.0835 21.2893V9.59233L12.5302 15.2273C12.977 15.526 13.4892 15.6753 14.0002 15.6753C14.5135 15.6753 15.0233 15.526 15.4702 15.2285L23.9168 9.59349V21.2858C23.9168 22.0908 23.2635 22.7442 22.4585 22.7442V22.7477Z" fill="black"/>
</g>
</svg>
