<svg width="28" height="28" viewBox="0 0 28 28" fill="none" xmlns="http://www.w3.org/2000/svg">
<mask id="mask0_342_171" style="mask-type:alpha" maskUnits="userSpaceOnUse" x="0" y="0" width="28" height="28">
<rect width="28" height="28" fill="#C4C4C4"/>
</mask>
<g mask="url(#mask0_342_171)">
<path d="M18.9582 11.6667C17.8323 11.6667 16.9165 12.5849 16.9165 13.7084C16.9165 14.8319 17.8312 15.75 18.9582 15.75C20.0828 15.75 20.9998 14.833 20.9998 13.7084C20.9998 12.5837 20.0828 11.6667 18.9582 11.6667ZM18.9582 14.5834C18.4752 14.5834 18.0832 14.1914 18.0832 13.7084C18.0832 13.2265 18.4763 12.8334 18.9582 12.8334C19.44 12.8334 19.8332 13.2254 19.8332 13.7084C19.8332 14.1902 19.4412 14.5834 18.9582 14.5834ZM13.7082 11.6667C12.5812 11.6667 11.6665 12.5849 11.6665 13.7084C11.6665 14.8319 12.5823 15.75 13.7082 15.75C14.834 15.75 15.7498 14.833 15.7498 13.7084C15.7498 12.5837 14.8352 11.6667 13.7082 11.6667ZM13.7082 14.5834C13.2252 14.5834 12.8332 14.1914 12.8332 13.7084C12.8332 13.2265 13.2263 12.8334 13.7082 12.8334C14.19 12.8334 14.5832 13.2254 14.5832 13.7084C14.5832 14.1902 14.1912 14.5834 13.7082 14.5834ZM8.45817 11.6667C7.33234 11.6667 6.4165 12.5849 6.4165 13.7084C6.4165 14.8319 7.33234 15.75 8.45817 15.75C9.58284 15.75 10.4998 14.833 10.4998 13.7084C10.4998 12.5837 9.58167 11.6667 8.45817 11.6667ZM8.45817 14.5834C7.97517 14.5834 7.58317 14.1914 7.58317 13.7084C7.58317 13.2265 7.97634 12.8334 8.45817 12.8334C8.94 12.8334 9.33317 13.2254 9.33317 13.7084C9.33317 14.1902 8.94117 14.5834 8.45817 14.5834Z" fill="black"/>
<path d="M13.7082 26.25C6.79217 26.25 1.1665 20.6244 1.1665 13.7084C1.1665 6.79235 6.79217 1.16669 13.7082 1.16669C20.6242 1.16669 26.2498 6.79235 26.2498 13.7084C26.2498 20.6244 20.6242 26.25 13.7082 26.25ZM13.7082 2.91669C7.75817 2.91669 2.9165 7.75835 2.9165 13.7084C2.9165 19.6584 7.75817 24.5 13.7082 24.5C19.6582 24.5 24.4998 19.6584 24.4998 13.7084C24.4998 7.75835 19.6582 2.91669 13.7082 2.91669Z" fill="black"/>
</g>
</svg>
