<svg width="28" height="28" viewBox="0 0 28 28" fill="none" xmlns="http://www.w3.org/2000/svg">
<mask id="mask0_342_199" style="mask-type:alpha" maskUnits="userSpaceOnUse" x="0" y="0" width="28" height="28">
<rect width="28" height="28" fill="#C4C4C4"/>
</mask>
<g mask="url(#mask0_342_199)">
<path d="M25.3142 19.2943C25.2909 19.2757 22.8175 17.381 22.8607 12.2593C22.884 9.30533 21.9134 6.68032 20.1225 4.86848C18.5184 3.24332 16.3461 2.34498 14.0069 2.33331H13.9917C11.6537 2.34498 9.48139 3.24333 7.87606 4.86966C6.08639 6.68149 5.1134 9.30533 5.13906 12.2593C5.18223 17.311 2.78239 19.2208 2.68673 19.2943C2.38339 19.5195 2.25973 19.9127 2.37756 20.272C2.49656 20.6313 2.83255 20.8728 3.20821 20.8728H8.94823C9.06723 23.5678 11.278 25.7262 13.9999 25.7262C16.7217 25.7262 18.9302 23.5678 19.0481 20.8728H24.7904C25.1661 20.8728 25.502 20.6325 25.6187 20.2732C25.7389 19.915 25.6152 19.5206 25.3119 19.2955L25.3142 19.2943ZM14.0011 23.9727C12.2452 23.9727 10.8161 22.5995 10.7017 20.8717H17.3004C17.1837 22.5983 15.7569 23.975 14.0011 23.975V23.9727ZM5.11106 19.1217C5.9744 17.801 6.91706 15.589 6.88906 12.243C6.86806 9.72298 7.64039 7.59732 9.12089 6.09815C10.3961 4.80665 12.1309 4.09148 14.0011 4.08331C15.8712 4.09265 17.6025 4.80666 18.8777 6.09933C20.3594 7.59849 21.1329 9.72299 21.1119 12.2442C21.0839 15.5902 22.0277 17.8033 22.891 19.1228H5.11106V19.1217Z" fill="black"/>
</g>
</svg>
