<svg width="20" height="20" viewBox="0 0 20 20" fill="none" xmlns="http://www.w3.org/2000/svg">
<path d="M16.8626 12.175C16.5501 10.7208 14.911 9.25335 13.521 8.73751L13.0676 4.61418L14.3135 2.74585C14.4443 2.54918 14.4568 2.29751 14.3443 2.09001C14.2326 1.88168 14.0176 1.75418 13.7818 1.75418H6.16514C5.92847 1.75418 5.71347 1.88251 5.6018 2.09001C5.49014 2.29835 5.5018 2.55085 5.63347 2.74668L6.8818 4.61918L6.47847 8.73835C5.08847 9.25501 3.45097 10.7217 3.1418 12.1683C3.10847 12.3017 3.12847 12.505 3.2518 12.6633C3.33764 12.7733 3.50514 12.905 3.81847 12.905H7.20014L9.62014 18.4983C9.68514 18.6517 9.8368 18.75 10.0018 18.75C10.1668 18.75 10.3185 18.6517 10.3851 18.4983L12.8043 12.9042H16.1851C16.4985 12.9042 16.6651 12.7742 16.7518 12.6658C16.8735 12.5092 16.8951 12.3042 16.8643 12.1742L16.8626 12.175Z" fill="#536471"/>
</svg>
