<svg width="34" height="35" viewBox="0 0 34 35" fill="none" xmlns="http://www.w3.org/2000/svg">
<rect y="0.5" width="34" height="34" rx="17" fill="black"/>
<path d="M26.8083 20.5583C26.5649 20.3142 26.1691 20.3142 25.9249 20.5583L24.0749 22.4083V13.875C24.0749 12.1517 22.6724 10.75 20.9499 10.75H16.0749C15.7299 10.75 15.4499 11.03 15.4499 11.375C15.4499 11.72 15.7299 12 16.0749 12H20.9499C21.9833 12 22.8249 12.8417 22.8249 13.875V22.4083L20.9749 20.5583C20.7308 20.3142 20.3349 20.3142 20.0916 20.5583C19.8483 20.8025 19.8466 21.1983 20.0916 21.4417L23.0083 24.3583C23.1291 24.4808 23.2891 24.5417 23.4499 24.5417C23.6108 24.5417 23.7691 24.4817 23.8916 24.3583L26.8083 21.4417C27.0533 21.1983 27.0533 20.8025 26.8083 20.5583ZM17.9249 23.2917H13.0499C12.0166 23.2917 11.1749 22.45 11.1749 21.4167V12.8833L13.0249 14.7333C13.1483 14.8558 13.3083 14.9167 13.4683 14.9167C13.6283 14.9167 13.7883 14.8558 13.9099 14.7333C14.1541 14.4892 14.1541 14.0933 13.9099 13.85L10.9933 10.9333C10.7491 10.6883 10.3533 10.6883 10.1099 10.9333L7.19327 13.85C6.94827 14.0933 6.94827 14.4892 7.19327 14.7333C7.43827 14.9775 7.83244 14.9775 8.0766 14.7333L9.9266 12.8833V21.4167C9.9266 23.14 11.3291 24.5417 13.0516 24.5417H17.9266C18.2716 24.5417 18.5516 24.2617 18.5516 23.9167C18.5516 23.5717 18.2708 23.2917 17.9266 23.2917H17.9249Z" fill="#6E767D"/>
</svg>
