<svg width="34" height="35" viewBox="0 0 34 35" fill="none" xmlns="http://www.w3.org/2000/svg">
<rect y="0.5" width="34" height="34" rx="17" fill="black"/>
<path d="M21.6084 13.725L17.4418 9.55834C17.1976 9.31417 16.8018 9.31417 16.5584 9.55834L12.3918 13.725C12.1468 13.9692 12.1468 14.365 12.3918 14.6083C12.6368 14.8517 13.0309 14.8533 13.2751 14.6083L16.3751 11.5083V20C16.3751 20.345 16.6551 20.625 17.0001 20.625C17.3451 20.625 17.6251 20.345 17.6251 20V11.5083L20.7251 14.6083C20.8468 14.7308 21.0068 14.7917 21.1668 14.7917C21.3268 14.7917 21.4868 14.7317 21.6084 14.6083C21.8526 14.3642 21.8526 13.9692 21.6084 13.725Z" fill="#6E767D"/>
<path d="M23.4234 25.7867H10.5767C9.52341 25.7867 8.66675 24.93 8.66675 23.8767V19.1667C8.66675 18.8217 8.94675 18.5417 9.29175 18.5417C9.63675 18.5417 9.91675 18.8217 9.91675 19.1667V23.8767C9.91675 24.2408 10.2126 24.5367 10.5767 24.5367H23.4234C23.7876 24.5367 24.0834 24.2408 24.0834 23.8767V19.1667C24.0834 18.8217 24.3634 18.5417 24.7084 18.5417C25.0534 18.5417 25.3334 18.8217 25.3334 19.1667V23.8767C25.3334 24.93 24.4767 25.7867 23.4234 25.7867Z" fill="#6E767D"/>
</svg>
