<svg width="34" height="34" viewBox="0 0 34 34" fill="none" xmlns="http://www.w3.org/2000/svg">
<rect width="34" height="34" rx="17" fill="black"/>
<path d="M18.7049 8.86833L15.2482 8.86H15.2466C11.6016 8.86 8.74658 11.7158 8.74658 15.3617C8.74658 18.7767 11.4016 21.3667 14.9674 21.5033V24.6933C14.9674 24.7833 15.0041 24.9317 15.0674 25.0292C15.1857 25.2167 15.3874 25.3183 15.5941 25.3183C15.7091 25.3183 15.8249 25.2867 15.9291 25.22C16.1491 25.08 21.3232 21.77 22.6691 20.6317C24.2541 19.29 25.2024 17.3233 25.2049 15.3717V15.3575C25.1999 11.7183 22.3466 8.86833 18.7049 8.8675V8.86833ZM21.8607 19.6783C20.9157 20.4783 17.8091 22.5158 16.2174 23.5475V20.8917C16.2174 20.5467 15.9382 20.2667 15.5924 20.2667H15.2624C12.2124 20.2667 9.99742 18.2033 9.99742 15.3617C9.99742 12.4167 12.3041 10.11 15.2474 10.11L18.7032 10.1183H18.7049C21.6482 10.1183 23.9549 12.4233 23.9566 15.365C23.9541 16.9567 23.1716 18.5683 21.8616 19.6783H21.8607Z" fill="#6E767D"/>
</svg>
