<svg width="34" height="35" viewBox="0 0 34 35" fill="none" xmlns="http://www.w3.org/2000/svg">
<rect y="0.5" width="34" height="34" rx="17" fill="black"/>
<path d="M18.7049 9.36835L15.2482 9.36002H15.2466C11.6016 9.36002 8.74658 12.2158 8.74658 15.8617C8.74658 19.2767 11.4016 21.8667 14.9674 22.0033V25.1933C14.9674 25.2833 15.0041 25.4317 15.0674 25.5292C15.1857 25.7167 15.3874 25.8183 15.5941 25.8183C15.7091 25.8183 15.8249 25.7867 15.9291 25.72C16.1491 25.58 21.3232 22.27 22.6691 21.1317C24.2541 19.79 25.2024 17.8233 25.2049 15.8717V15.8575C25.1999 12.2183 22.3466 9.36835 18.7049 9.36752V9.36835ZM21.8607 20.1783C20.9157 20.9783 17.8091 23.0159 16.2174 24.0475V21.3917C16.2174 21.0467 15.9382 20.7667 15.5924 20.7667H15.2624C12.2124 20.7667 9.99742 18.7034 9.99742 15.8617C9.99742 12.9167 12.3041 10.61 15.2474 10.61L18.7032 10.6183H18.7049C21.6482 10.6183 23.9549 12.9233 23.9566 15.865C23.9541 17.4567 23.1716 19.0683 21.8616 20.1783H21.8607Z" fill="#6E767D"/>
</svg>
