<svg width="34" height="35" viewBox="0 0 34 35" fill="none" xmlns="http://www.w3.org/2000/svg">
<rect y="0.5" width="34" height="34" rx="17" fill="black"/>
<path d="M17 25.5317H16.9883C14.8358 25.4917 8.625 19.88 8.625 14.565C8.625 12.0117 10.7292 9.76999 13.1275 9.76999C15.0358 9.76999 16.3192 11.0867 16.9992 12.045C17.6775 11.0883 18.9608 9.76999 20.87 9.76999C23.27 9.76999 25.3733 12.0117 25.3733 14.5658C25.3733 19.8792 19.1617 25.4908 17.0092 25.53H17V25.5317ZM13.1283 11.0208C11.395 11.0208 9.87583 12.6775 9.87583 14.5667C9.87583 19.35 15.7375 24.23 17.0008 24.2817C18.2658 24.23 24.1258 19.3508 24.1258 14.5667C24.1258 12.6775 22.6067 11.0208 20.8733 11.0208C18.7667 11.0208 17.59 13.4675 17.58 13.4917C17.3883 13.96 16.6167 13.96 16.4242 13.4917C16.4125 13.4667 15.2367 11.0208 13.1292 11.0208H13.1283Z" fill="#6E767D"/>
</svg>
