<svg width="34" height="35" viewBox="0 0 34 35" fill="none" xmlns="http://www.w3.org/2000/svg">
<rect y="0.5" width="34" height="34" rx="17" fill="black"/>
<path d="M21.6084 13.725L17.4418 9.55831C17.1976 9.31414 16.8018 9.31414 16.5584 9.55831L12.3918 13.725C12.1468 13.9691 12.1468 14.365 12.3918 14.6083C12.6368 14.8516 13.0309 14.8533 13.2751 14.6083L16.3751 11.5083V20C16.3751 20.345 16.6551 20.625 17.0001 20.625C17.3451 20.625 17.6251 20.345 17.6251 20V11.5083L20.7251 14.6083C20.8468 14.7308 21.0068 14.7916 21.1668 14.7916C21.3268 14.7916 21.4868 14.7316 21.6084 14.6083C21.8526 14.3641 21.8526 13.9691 21.6084 13.725Z" fill="#6E767D"/>
<path d="M23.4234 25.7866H10.5767C9.52341 25.7866 8.66675 24.93 8.66675 23.8766V19.1666C8.66675 18.8216 8.94675 18.5416 9.29175 18.5416C9.63675 18.5416 9.91675 18.8216 9.91675 19.1666V23.8766C9.91675 24.2408 10.2126 24.5366 10.5767 24.5366H23.4234C23.7876 24.5366 24.0834 24.2408 24.0834 23.8766V19.1666C24.0834 18.8216 24.3634 18.5416 24.7084 18.5416C25.0534 18.5416 25.3334 18.8216 25.3334 19.1666V23.8766C25.3334 24.93 24.4767 25.7866 23.4234 25.7866Z" fill="#6E767D"/>
</svg>
