<svg width="34" height="34" viewBox="0 0 34 34" fill="none" xmlns="http://www.w3.org/2000/svg">
<rect width="34" height="34" rx="17" fill="black"/>
<path d="M26.8083 20.0583C26.5649 19.8142 26.1691 19.8142 25.9249 20.0583L24.0749 21.9083V13.375C24.0749 11.6517 22.6724 10.25 20.9499 10.25H16.0749C15.7299 10.25 15.4499 10.53 15.4499 10.875C15.4499 11.22 15.7299 11.5 16.0749 11.5H20.9499C21.9833 11.5 22.8249 12.3417 22.8249 13.375V21.9083L20.9749 20.0583C20.7308 19.8142 20.3349 19.8142 20.0916 20.0583C19.8483 20.3025 19.8466 20.6983 20.0916 20.9417L23.0083 23.8583C23.1291 23.9808 23.2891 24.0417 23.4499 24.0417C23.6108 24.0417 23.7691 23.9817 23.8916 23.8583L26.8083 20.9417C27.0533 20.6983 27.0533 20.3025 26.8083 20.0583ZM17.9249 22.7917H13.0499C12.0166 22.7917 11.1749 21.95 11.1749 20.9167V12.3833L13.0249 14.2333C13.1483 14.3558 13.3083 14.4167 13.4683 14.4167C13.6283 14.4167 13.7883 14.3558 13.9099 14.2333C14.1541 13.9892 14.1541 13.5933 13.9099 13.35L10.9933 10.4333C10.7491 10.1883 10.3533 10.1883 10.1099 10.4333L7.19327 13.35C6.94827 13.5933 6.94827 13.9892 7.19327 14.2333C7.43827 14.4775 7.83244 14.4775 8.0766 14.2333L9.9266 12.3833V20.9167C9.9266 22.64 11.3291 24.0417 13.0516 24.0417H17.9266C18.2716 24.0417 18.5516 23.7617 18.5516 23.4167C18.5516 23.0717 18.2708 22.7917 17.9266 22.7917H17.9249Z" fill="#6E767D"/>
</svg>
