<svg width="34" height="34" viewBox="0 0 34 34" fill="none" xmlns="http://www.w3.org/2000/svg">
<rect width="34" height="34" rx="17" fill="black"/>
<path d="M21.6084 13.225L17.4418 9.05833C17.1976 8.81417 16.8018 8.81417 16.5584 9.05833L12.3918 13.225C12.1468 13.4692 12.1468 13.865 12.3918 14.1083C12.6368 14.3517 13.0309 14.3533 13.2751 14.1083L16.3751 11.0083V19.5C16.3751 19.845 16.6551 20.125 17.0001 20.125C17.3451 20.125 17.6251 19.845 17.6251 19.5V11.0083L20.7251 14.1083C20.8468 14.2308 21.0068 14.2917 21.1668 14.2917C21.3268 14.2917 21.4868 14.2317 21.6084 14.1083C21.8526 13.8642 21.8526 13.4692 21.6084 13.225Z" fill="#6E767D"/>
<path d="M23.4234 25.2867H10.5767C9.52341 25.2867 8.66675 24.43 8.66675 23.3767V18.6667C8.66675 18.3217 8.94675 18.0417 9.29175 18.0417C9.63675 18.0417 9.91675 18.3217 9.91675 18.6667V23.3767C9.91675 23.7408 10.2126 24.0367 10.5767 24.0367H23.4234C23.7876 24.0367 24.0834 23.7408 24.0834 23.3767V18.6667C24.0834 18.3217 24.3634 18.0417 24.7084 18.0417C25.0534 18.0417 25.3334 18.3217 25.3334 18.6667V23.3767C25.3334 24.43 24.4767 25.2867 23.4234 25.2867Z" fill="#6E767D"/>
</svg>
